<?xml version="1.0" encoding="UTF-8"?>
<svg id="Layer_1" data-name="Layer 1" xmlns="http://www.w3.org/2000/svg" viewBox="0 0 48 48">
  <defs>
    <style>
      .cls-1 {
        stroke: #54565a;
      }

      .cls-1, .cls-2 {
        fill: none;
        stroke-linecap: round;
        stroke-linejoin: round;
        stroke-width: 1.5px;
      }

      .cls-2 {
        stroke: #009845;
      }
    </style>
  </defs>
  <path class="cls-1" d="M19.54,5.7c-2.05,0-3.78,1.4-4.3,3.29-.51-.2-1.06-.32-1.64-.32-2.46,0-4.46,2-4.46,4.46,0,.45.07.87.19,1.27-.57.65-.94,1.5-.94,2.44,0,.52.11,1.01.3,1.46-1.54,1.23-2.53,3.11-2.53,5.23s.91,3.85,2.35,5.07c-.06.28-.11.57-.11.87,0,.94.36,1.79.94,2.45-.12.4-.19.09-.19.53,0,2.25,1.66,4.1,3.82,4.41.5,2.57,2.75,4.51,5.47,4.51,1.87,0,3.54-.93,4.55-2.35.65-.77,1.03-1.76,1.03-2.85V10.15c0-2.46-2-4.46-4.46-4.46v.02Z"/>
  <path class="cls-1" d="M16.57,13.14c-2.05,0-3.72,1.66-3.72,3.72"/>
  <path class="cls-1" d="M14.44,34.27c1.49-1.44,1.49-3.76,0-5.2"/>
  <path class="cls-1" d="M15.24,8.99s.68.33.95.57"/>
  <path class="cls-1" d="M17.31,19.09c0,2.05-1.66,3.72-3.72,3.72"/>
  <path class="cls-1" d="M15.82,22.06c2.05,0,3.72,1.66,3.72,3.72"/>
  <path class="cls-1" d="M8.39,29.49c0-2.05,1.66-3.72,3.72-3.72"/>
  <path class="cls-1" d="M6.16,23.55c0-3.69,2.99-6.69,6.69-6.69"/>
  <path class="cls-1" d="M18.51,34.03c-.45-1.09-1.53-1.85-2.79-1.85"/>
  <path class="cls-1" d="M24,10.17h4.46"/>
  <path class="cls-1" d="M24,22.8h4.46"/>
  <path class="cls-1" d="M24,35.44h4.46"/>
  <path class="cls-1" d="M26.98,16.11h8.92l1.98-1.59"/>
  <path class="cls-1" d="M26.98,29.49h8.92l1.97,1.58"/>
  <path class="cls-2" d="M32.92,35.44c0-1.23-1-2.23-2.23-2.23-.55,0-1.06.21-1.45.55-.47.41-.77,1.01-.77,1.69,0,1.23,1,2.23,2.23,2.23s2.23-1,2.23-2.23h0Z"/>
  <path class="cls-2" d="M32.92,10.17c0-1.23-1-2.23-2.23-2.23-.55,0-1.06.21-1.45.55-.47.41-.77,1.01-.77,1.69,0,1.23,1,2.23,2.23,2.23s2.23-1,2.23-2.23h0Z"/>
  <path class="cls-2" d="M32.92,22.8c0-1.23-1-2.23-2.23-2.23-.55,0-1.06.21-1.45.55-.47.41-.77,1.01-.77,1.69,0,1.23,1,2.23,2.23,2.23s2.23-1,2.23-2.23h0Z"/>
  <path class="cls-2" d="M41.84,32.47c0-1.23-1-2.23-2.23-2.23-.55,0-1.06.21-1.45.55-.47.41-.77,1.01-.77,1.69,0,1.23,1,2.23,2.23,2.23s2.23-1,2.23-2.23h0Z"/>
  <path class="cls-2" d="M41.84,13.14c0-1.23-1-2.23-2.23-2.23-.55,0-1.06.21-1.45.55-.47.41-.77,1.01-.77,1.69,0,1.23,1,2.23,2.23,2.23s2.23-1,2.23-2.23h0Z"/>
</svg>