<?xml version="1.0" encoding="UTF-8"?>
<svg id="Layer_1" data-name="Layer 1" xmlns="http://www.w3.org/2000/svg" viewBox="0 0 48 48">
  <defs>
    <style>
      .cls-1 {
        stroke: #2a7750;
      }

      .cls-1, .cls-2, .cls-3, .cls-4 {
        fill: none;
        stroke-linecap: round;
        stroke-linejoin: round;
        stroke-width: 1.5px;
      }

      .cls-2 {
        stroke: #54565a;
      }

      .cls-3 {
        stroke-dasharray: 0 0 0 3.99;
      }

      .cls-3, .cls-4 {
        stroke: #009845;
      }
    </style>
  </defs>
  <g>
    <path class="cls-2" d="M34.56,34.76c-1.45,1.43-3.14,2.52-5.02,3.26-1.77.7-3.63,1.05-5.54,1.05-.05,0-.1,0-.14,0-1.96-.02-3.86-.41-5.66-1.16-1.86-.78-3.53-1.9-4.95-3.36-1.43-1.45-2.52-3.14-3.26-5.02-.72-1.81-1.07-3.72-1.05-5.68.02-1.96.41-3.86,1.16-5.66.78-1.86,1.9-3.53,3.36-4.95,1.45-1.43,3.14-2.52,5.02-3.26,1.81-.72,3.72-1.07,5.68-1.05,1.96.02,3.86.41,5.66,1.16,1.86.78,3.53,1.9,4.95,3.36,1.43,1.45,2.52,3.14,3.26,5.02.72,1.81,1.07,3.72,1.05,5.68-.02,1.96-.41,3.86-1.16,5.66-.78,1.86-1.9,3.53-3.36,4.95"/>
    <path class="cls-1" d="M32.28,33.75c-1.39,1.25-1.91,1.92-3.42,2.8-.32.18-.65.37-1,.54-1.48.73-3.21,1.27-5.1,1.12-.04,0-.07,0-.1,0-1.32-.07-2.57-.37-3.71-.88-1.34-.6-2.43-1.43-3.25-2.25-1.69-1.71-1.82-3.22-2.87-5.57-.04-.09-.08-.19-.13-.28-1-2.06-2.54-3.32-2.79-5.43-.17-1.52.18-2.95.4-3.65.13-.4.28-.77.45-1.11.22-.45.44-.81.61-1.07.78-1.18,1.71-1.81,2.68-2.55,1.56-1.18,2.43-2.62,3.67-3.74.59-.54,1.26-.98,2.13-1.29.98-.35,1.97-.37,2.64-.34,1.74.07,2.87.85,5,1.64.36.13.71.26,1.01.36s.57.19.73.25c2.29.79,3.9.77,5.27,2.05.22.21.49.48.74.83.87,1.23.88,2.38,1.28,4.15.24,1.04.45,2.18.9,3.28.27.67.46,1.07.64,1.81.21.86.13,1.68.06,2.15-.09.58-.26,1.05-.39,1.38-.25.67-.65,1.27-1.11,1.84-1.23,1.54-2.96,2.72-4.34,3.98"/>
    <path class="cls-4" d="M36.84,28.15c-1.35,2.32-5.06,3.09-6.83,4.59-1.63,1.37-1.38,1.75-2.97,2.84-1.25.85-3.16,2.14-5.53,1.77-1.85-.29-3.05-1.45-3.38-1.77-2.02-2.02-1.2-3.43-2.57-6.37-1.2-2.58-4.15-3.13-4.68-5.49-.35-1.56.12-2.96.12-2.96.33-.95.87-1.55,1.01-1.7.92-.98,1.82-1.05,2.64-1.48,2.53-1.31,1.36-4.68,3.82-6.01,1-.54,2.01-.46,2.35-.43,1.84.16,2.51,1.42,5.24,2.47.98.38,1.76.55,1.93.58,3.04.65,4.73-.22,6.22,1.02.16.13.44.37.68.78.71,1.21-.04,2.11.1,4.17.06.93.14,2.03.87,3.03.46.63.81.72,1.15,1.47.45.99.33,1.92.3,2.14-.1.68-.38,1.16-.49,1.35Z"/>
  </g>
  <circle class="cls-3" cx="24" cy="24" r="19.12"/>
</svg>